<?xml version="1.0" encoding="UTF-8" standalone="no"?>
<!DOCTYPE svg PUBLIC "-//W3C//DTD SVG 1.1//EN" "http://www.w3.org/Graphics/SVG/1.1/DTD/svg11.dtd">
<svg xmlns="http://www.w3.org/2000/svg" version="1.1" viewBox="0 0 600 600">
<g stroke-width="2.00" fill="none" stroke-linecap="butt">
<path stroke="#8db0cc" vector-effect="non-scaling-stroke" d="
  M 337.68 92.68
  Q 323.12 109.01 307.67 121.17
  C 293.25 132.52 275.70 141.44 261.54 153.56
  C 242.96 169.45 234.57 194.09 236.91 217.62
  C 240.58 254.43 268.73 288.66 295.34 312.61
  Q 295.71 312.95 295.62 312.46
  Q 295.02 309.38 292.83 300.93
  C 288.87 285.70 287.57 267.68 290.37 252.15
  C 296.56 217.71 321.95 196.79 335.90 166.41
  C 346.70 142.87 345.69 117.12 338.05 92.75
  Q 337.93 92.39 337.68 92.68"
/>
<path stroke="#8db0cc" vector-effect="non-scaling-stroke" d="
  M 326.59 204.85
  C 318.15 224.12 310.22 243.81 306.56 264.74
  C 301.61 293.02 311.22 315.78 328.98 336.92
  A 0.38 0.37 41.5 0 0 329.58 336.89
  C 345.91 312.21 350.54 284.42 343.87 255.72
  C 339.86 238.43 333.43 221.57 327.49 204.88
  Q 327.08 203.72 326.59 204.85"
/>
<path stroke="#8d8d8d" vector-effect="non-scaling-stroke" d="
  M 288.93 373.90
  C 291.59 384.34 308.14 388.60 316.83 390.89
  C 322.67 392.44 327.95 399.24 319.77 403.09
  Q 317.55 404.13 315.26 404.31
  Q 302.81 405.31 291.25 400.76
  A 0.50 0.48 18.7 0 0 290.59 401.07
  L 287.64 411.92
  A 0.56 0.52 16.4 0 0 288.02 412.56
  C 301.79 416.90 338.82 420.32 342.16 398.87
  C 345.60 376.72 305.32 379.23 306.84 369.11
  C 308.24 359.77 328.60 363.88 334.54 365.94
  A 0.56 0.40 19.1 0 0 335.21 365.74
  L 338.50 356.27
  A 1.50 1.44 -72.7 0 0 337.54 354.35
  Q 322.42 350.14 306.29 353.39
  C 296.87 355.29 286.04 362.57 288.93 373.90"
/>
<path stroke="#8d8d8d" vector-effect="non-scaling-stroke" d="
  M 195.75 390.09
  L 223.00 390.09
  A 0.75 0.34 0.0 0 0 223.75 389.75
  L 224.00 379.31
  A 0.50 0.50 -89.4 0 0 223.50 378.80
  L 196.00 378.44
  A 0.94 0.76 -89.7 0 1 195.25 377.50
  L 195.25 364.75
  A 0.50 0.50 0.0 0 1 195.75 364.25
  L 225.50 364.25
  A 0.73 0.43 -0.3 0 0 226.23 363.81
  L 226.00 353.25
  A 0.75 0.51 -0.4 0 0 225.25 352.75
  L 178.00 352.75
  A 0.75 0.75 0.0 0 0 177.25 353.50
  L 177.25 414.50
  A 0.81 0.80 -0.4 0 0 178.07 415.30
  L 194.81 415.09
  A 0.44 0.34 0.0 0 0 195.25 414.75
  L 195.25 390.75
  A 0.66 0.50 -90.0 0 1 195.75 390.09"
/>
<path stroke="#8d8d8d" vector-effect="non-scaling-stroke" d="
  M 266.25 353.27
  A 0.39 0.39 0.0 0 0 265.86 352.88
  L 248.64 352.88
  A 0.39 0.39 0.0 0 0 248.25 353.27
  L 248.25 414.69
  A 0.39 0.39 0.0 0 0 248.64 415.08
  L 265.86 415.08
  A 0.39 0.39 0.0 0 0 266.25 414.69
  L 266.25 353.27"
/>
<path stroke="#8d8d8d" vector-effect="non-scaling-stroke" d="
  M 381.75 388.75
  L 410.00 388.75
  A 0.76 0.75 90.0 0 0 410.75 387.99
  L 410.75 377.75
  A 0.50 0.49 0.0 0 0 410.25 377.26
  L 382.06 377.27
  A 0.66 0.61 86.9 0 1 381.45 376.68
  Q 380.94 370.72 381.54 364.75
  A 0.73 0.54 2.1 0 1 382.25 364.26
  L 411.82 364.29
  A 0.68 0.55 -0.0 0 0 412.50 363.74
  L 412.50 353.25
  A 0.50 0.50 0.0 0 0 412.00 352.75
  L 364.74 352.75
  A 1.56 1.46 90.0 0 0 363.28 354.31
  L 363.34 414.75
  A 0.57 0.41 90.0 0 0 363.75 415.32
  L 413.50 415.27
  A 0.77 0.75 -90.0 0 0 414.25 414.50
  L 414.25 404.25
  A 0.50 0.50 0.0 0 0 413.75 403.75
  L 381.75 403.75
  A 0.50 0.50 0.0 0 1 381.25 403.25
  L 381.25 389.25
  A 0.50 0.50 0.0 0 1 381.75 388.75"
/>
<path stroke="#808080" vector-effect="non-scaling-stroke" d="
  M 396.0911 430.7189
  A 2.46 1.11 -37.9 0 0 393.4681 431.3541
  A 2.46 1.11 -37.9 0 0 392.2089 433.7411
  A 2.46 1.11 -37.9 0 0 394.8319 433.1059
  A 2.46 1.11 -37.9 0 0 396.0911 430.7189"
/>
<path stroke="#808080" vector-effect="non-scaling-stroke" d="
  M 392.2558 452.0531
  A 8.72 7.95 94.5 0 0 400.8655 443.9837
  A 8.72 7.95 94.5 0 0 393.6242 434.6669
  A 8.72 7.95 94.5 0 0 385.0145 442.7363
  A 8.72 7.95 94.5 0 0 392.2558 452.0531"
/>
<path stroke="#808080" vector-effect="non-scaling-stroke" d="
  M 191.2287 452.1027
  A 8.78 7.98 93.6 0 0 199.7443 443.8411
  A 8.78 7.98 93.6 0 0 192.3313 434.5773
  A 8.78 7.98 93.6 0 0 183.8157 442.8389
  A 8.78 7.98 93.6 0 0 191.2287 452.1027"
/>
<path stroke="#808080" vector-effect="non-scaling-stroke" d="
  M 212.92 445.77
  Q 210.34 441.71 208.19 437.38
  C 207.05 435.08 205.33 434.55 203.00 435.10
  A 0.69 0.56 84.9 0 0 202.56 435.75
  L 202.71 451.00
  A 0.76 0.54 89.5 0 0 203.25 451.75
  L 205.26 451.76
  A 0.76 0.48 90.0 0 0 205.74 451.00
  L 205.74 440.00
  Q 205.74 438.90 206.29 439.95
  L 211.79 450.45
  A 1.32 0.48 67.5 0 0 212.50 451.23
  L 215.68 451.82
  A 0.56 0.49 -85.8 0 0 216.25 451.25
  L 216.25 435.25
  A 0.59 0.47 5.6 0 0 215.75 434.77
  Q 214.59 434.59 213.49 434.97
  A 0.83 0.74 81.4 0 0 212.98 435.75
  L 213.24 445.75
  Q 213.25 446.29 212.92 445.77"
/>
<path stroke="#808080" vector-effect="non-scaling-stroke" d="
  M 243.8175 452.0312
  A 8.74 8.02 95.4 0 0 252.6244 444.0847
  A 8.74 8.02 95.4 0 0 245.4625 434.6288
  A 8.74 8.02 95.4 0 0 236.6556 442.5753
  A 8.74 8.02 95.4 0 0 243.8175 452.0312"
/>
<path stroke="#808080" vector-effect="non-scaling-stroke" d="
  M 330.54 434.71
  C 314.87 434.29 318.09 455.89 332.35 451.49
  A 0.94 0.87 -6.0 0 0 333.00 450.75
  Q 333.12 449.76 332.44 449.06
  A 1.01 0.93 -25.6 0 0 331.55 448.79
  C 320.07 450.75 322.28 434.89 331.52 438.13
  A 0.71 0.66 27.3 0 0 332.30 437.91
  Q 334.59 434.82 330.54 434.71"
/>
<path stroke="#808080" vector-effect="non-scaling-stroke" d="
  M 339.35 448.32
  L 339.44 436.00
  A 0.95 0.28 -89.5 0 0 339.18 435.08
  L 336.26 434.74
  A 0.74 0.46 -88.1 0 0 335.75 435.50
  L 335.90 450.75
  A 0.77 0.62 -89.3 0 0 336.50 451.52
  L 345.50 451.71
  A 0.73 0.53 3.6 0 0 346.23 451.25
  Q 346.37 450.19 346.10 449.18
  A 0.94 0.56 -4.2 0 0 345.25 448.75
  L 340.00 448.75
  A 0.65 0.42 0.4 0 1 339.35 448.32"
/>
<path stroke="#808080" vector-effect="non-scaling-stroke" d="
  M 351.01 451.18
  C 363.23 455.82 360.97 442.43 361.48 435.79
  A 0.72 0.57 -84.6 0 0 360.99 435.03
  L 358.50 434.75
  A 0.52 0.49 -85.9 0 0 357.95 435.25
  L 357.57 447.01
  A 1.27 1.25 -21.6 0 1 357.20 447.85
  Q 354.42 450.54 352.50 448.23
  C 350.73 446.09 351.51 438.91 351.48 436.04
  A 0.92 0.65 -85.0 0 0 351.00 435.22
  Q 349.79 434.84 348.50 435.03
  A 0.52 0.46 -4.3 0 0 348.05 435.49
  L 348.27 447.48
  Q 348.31 450.16 351.01 451.18"
/>
<path stroke="#808080" vector-effect="non-scaling-stroke" d="
  M 371.08 437.31
  Q 374.28 439.66 374.79 436.05
  A 0.79 0.75 13.7 0 0 374.26 435.22
  C 369.30 433.57 362.04 436.32 365.63 442.68
  A 1.54 1.41 -1.3 0 0 366.34 443.30
  Q 368.58 444.24 370.80 445.27
  C 372.78 446.18 372.50 448.30 370.49 448.78
  Q 368.20 449.33 365.95 448.35
  A 0.83 0.56 30.2 0 0 365.14 448.40
  Q 364.29 449.26 364.51 450.51
  A 1.10 0.79 9.6 0 0 365.20 451.21
  C 368.52 452.41 373.07 452.53 374.97 449.01
  Q 376.53 446.12 373.95 443.39
  C 373.14 442.54 363.73 439.57 370.20 437.46
  A 1.01 0.18 -20.0 0 1 371.08 437.31"
/>
<path stroke="#808080" vector-effect="non-scaling-stroke" d="
  M 382.1077 435.5251
  A 0.68 0.68 0.0 0 0 381.4337 434.8392
  L 379.3938 434.8214
  A 0.68 0.68 0.0 0 0 378.7079 435.4955
  L 378.5723 451.0349
  A 0.68 0.68 0.0 0 0 379.2463 451.7208
  L 381.2862 451.7386
  A 0.68 0.68 0.0 0 0 381.9721 451.0645
  L 382.1077 435.5251"
/>
<path stroke="#808080" vector-effect="non-scaling-stroke" d="
  M 407.25 439.50
  L 413.01 450.72
  A 1.87 1.27 7.5 0 0 413.81 451.43
  Q 415.22 452.07 416.75 452.00
  A 0.81 0.43 -87.6 0 0 417.19 451.25
  Q 417.81 443.37 417.15 435.50
  A 0.82 0.71 -87.0 0 0 416.60 434.79
  C 413.85 434.11 414.32 436.20 414.28 437.90
  Q 414.15 442.44 414.36 446.97
  A 0.25 0.18 -89.7 0 1 414.16 447.24
  Q 414.03 447.22 413.96 447.04
  Q 411.82 441.22 408.45 435.98
  A 1.48 0.59 64.6 0 0 407.74 435.32
  Q 405.86 434.80 403.99 435.18
  A 0.58 0.54 84.0 0 0 403.56 435.75
  L 403.71 451.00
  A 0.76 0.67 12.1 0 0 404.19 451.65
  C 406.34 452.50 407.02 451.42 407.02 449.41
  Q 407.04 444.45 406.83 439.56
  Q 406.79 438.60 407.25 439.50"
/>
<path stroke="#808080" vector-effect="non-scaling-stroke" d="
  M 175.24 444.55
  L 179.26 445.21
  A 1.07 0.81 20.4 0 0 180.20 444.93
  Q 181.19 443.73 180.55 442.23
  A 0.93 0.32 -1.1 0 0 179.75 441.97
  L 175.43 441.89
  A 0.70 0.64 0.9 0 1 174.75 441.25
  L 174.74 438.49
  A 0.72 0.63 -0.9 0 1 175.44 437.86
  L 180.25 437.77
  A 1.21 0.55 4.7 0 0 181.17 437.44
  Q 181.79 436.47 181.33 435.44
  A 0.96 0.70 -8.2 0 0 180.50 435.00
  L 171.75 435.00
  A 0.50 0.46 -90.0 0 0 171.29 435.50
  L 171.43 450.50
  A 1.29 0.79 -79.6 0 0 171.80 451.45
  Q 172.98 452.30 174.31 451.85
  A 0.95 0.66 83.3 0 0 174.77 450.99
  L 174.67 445.01
  A 0.49 0.47 4.7 0 1 175.24 444.55"
/>
<path stroke="#808080" vector-effect="non-scaling-stroke" d="
  M 230.83 436.21
  Q 226.05 433.98 220.27 435.21
  A 0.63 0.52 -7.8 0 0 219.77 435.75
  L 220.10 450.68
  A 1.31 1.30 87.5 0 0 221.49 451.96
  C 229.34 451.45 236.28 450.68 233.94 440.09
  Q 233.34 437.38 230.83 436.21"
/>
<path stroke="#808080" vector-effect="non-scaling-stroke" d="
  M 271.81 436.44
  Q 267.17 433.97 261.13 435.16
  A 0.78 0.57 -7.6 0 0 260.50 435.76
  L 260.50 451.00
  A 0.70 0.64 4.1 0 0 261.11 451.64
  C 265.36 452.19 270.81 452.08 273.48 448.37
  C 275.64 445.37 275.58 438.44 271.81 436.44"
/>
<path stroke="#808080" vector-effect="non-scaling-stroke" d="
  M 282.51 444.52
  L 286.75 444.51
  A 0.99 0.73 4.5 0 0 287.68 443.93
  Q 287.91 442.92 287.60 441.92
  A 0.88 0.65 -9.1 0 0 286.75 441.48
  L 282.26 441.80
  A 0.68 0.53 -0.9 0 1 281.53 441.25
  L 281.73 438.04
  A 1.04 0.30 0.3 0 1 282.75 437.75
  L 287.50 437.75
  A 0.75 0.50 -0.0 0 0 288.25 437.25
  L 288.25 435.75
  A 0.52 0.51 -89.4 0 0 287.75 435.23
  L 278.25 435.04
  A 0.45 0.41 -89.4 0 0 277.83 435.49
  L 277.78 451.00
  A 0.54 0.45 4.3 0 0 278.25 451.46
  Q 283.13 452.10 288.00 451.46
  A 0.57 0.45 -4.2 0 0 288.50 451.00
  L 288.50 449.25
  A 0.75 0.50 0.0 0 0 287.75 448.75
  L 282.00 448.75
  A 0.64 0.62 83.6 0 1 281.39 448.25
  Q 281.00 446.38 281.77 444.69
  A 0.83 0.22 1.7 0 1 282.51 444.52"
/>
<path stroke="#808080" vector-effect="non-scaling-stroke" d="
  M 299.9361 435.6478
  A 0.62 0.62 0.0 0 0 299.3118 435.0322
  L 297.0119 435.0482
  A 0.62 0.62 0.0 0 0 296.3962 435.6725
  L 296.5039 451.0922
  A 0.62 0.62 0.0 0 0 297.1282 451.7078
  L 299.4281 451.6918
  A 0.62 0.62 0.0 0 0 300.0438 451.0675
  L 299.9361 435.6478"
/>
<path stroke="#808080" vector-effect="non-scaling-stroke" d="
  M 307.03 438.98
  L 313.10 450.86
  A 1.42 0.98 3.8 0 0 313.82 451.43
  Q 315.33 451.96 316.94 451.69
  A 1.00 0.35 88.8 0 0 317.25 450.75
  L 317.25 435.75
  A 0.68 0.63 -84.9 0 0 316.74 435.09
  Q 313.66 434.52 313.87 437.41
  C 314.08 440.44 313.97 443.46 314.06 446.51
  Q 314.07 447.01 313.85 446.56
  Q 311.45 441.90 309.08 437.22
  C 307.94 434.96 306.13 434.19 303.90 435.50
  A 0.82 0.78 73.0 0 0 303.52 436.26
  Q 303.97 442.63 303.50 449.01
  Q 303.22 452.67 306.52 451.62
  A 0.72 0.60 -10.5 0 0 307.03 451.00
  L 306.54 439.00
  A 0.20 0.03 86.4 0 1 306.56 438.81
  L 306.75 438.75
  A 0.34 0.16 64.7 0 1 307.03 438.98"
/>
<path stroke="#808080" vector-effect="non-scaling-stroke" d="
  M 356.75 457.37
  Q 355.79 458.37 357.22 458.70
  Q 360.32 459.40 360.57 456.56
  A 0.63 0.57 -0.7 0 0 359.88 455.95
  Q 357.96 456.11 356.75 457.37"
/>
<path stroke="#808080" vector-effect="non-scaling-stroke" d="
  M 192.1623 477.5454
  A 8.82 8.00 93.3 0 0 200.6567 469.2005
  A 8.82 8.00 93.3 0 0 193.1777 459.9346
  A 8.82 8.00 93.3 0 0 184.6833 468.2795
  A 8.82 8.00 93.3 0 0 192.1623 477.5454"
/>
<path stroke="#808080" vector-effect="non-scaling-stroke" d="
  M 223.2806 460.7549
  A 0.56 0.56 0.0 0 0 222.7284 460.1872
  L 220.3887 460.1545
  A 0.56 0.56 0.0 0 0 219.8209 460.7066
  L 219.5994 476.5651
  A 0.56 0.56 0.0 0 0 220.1516 477.1328
  L 222.4913 477.1655
  A 0.56 0.56 0.0 0 0 223.0591 476.6134
  L 223.2806 460.7549"
/>
<path stroke="#808080" vector-effect="non-scaling-stroke" d="
  M 290.89 465.27
  Q 293.12 470.04 296.14 475.58
  Q 297.63 478.33 300.36 476.53
  A 0.97 0.83 76.1 0 0 300.75 475.75
  L 300.75 461.50
  A 0.99 0.30 -87.4 0 0 300.54 460.66
  Q 299.51 460.07 298.23 460.03
  A 0.74 0.50 -88.6 0 0 297.71 460.75
  L 297.49 471.50
  Q 297.46 472.62 297.02 471.50
  Q 295.00 466.42 292.06 461.80
  C 290.99 460.10 289.74 459.85 287.90 460.33
  A 0.73 0.69 -7.5 0 0 287.35 461.01
  L 287.28 476.75
  A 0.56 0.47 5.7 0 0 287.75 477.23
  Q 288.92 477.41 290.00 477.03
  A 0.90 0.65 82.7 0 0 290.44 476.22
  L 290.28 465.40
  Q 290.26 463.93 290.89 465.27"
/>
<path stroke="#808080" vector-effect="non-scaling-stroke" d="
  M 369.65 463.75
  L 369.54 476.25
  A 0.80 0.77 13.6 0 0 370.00 476.97
  Q 371.25 477.55 372.51 477.03
  A 0.85 0.74 78.9 0 0 372.96 476.25
  L 372.71 463.75
  A 0.54 0.49 -0.5 0 1 373.25 463.25
  L 376.50 463.24
  A 0.89 0.69 9.4 0 0 377.26 462.83
  Q 378.67 459.75 375.00 460.17
  Q 370.27 460.71 365.58 460.08
  A 0.49 0.49 0.0 0 0 365.02 460.50
  Q 364.84 461.79 365.21 463.01
  A 0.75 0.73 -11.7 0 0 366.01 463.52
  L 369.31 463.15
  A 0.58 0.31 88.5 0 1 369.65 463.75"
/>
<path stroke="#808080" vector-effect="non-scaling-stroke" d="
  M 409.6868 477.4907
  A 8.80 7.98 93.8 0 0 418.2325 469.2389
  A 8.80 7.98 93.8 0 0 410.8532 459.9293
  A 8.80 7.98 93.8 0 0 402.3075 468.1811
  A 8.80 7.98 93.8 0 0 409.6868 477.4907"
/>
<path stroke="#808080" vector-effect="non-scaling-stroke" d="
  M 174.71 463.87
  Q 175.07 463.00 177.02 462.75
  A 1.50 0.42 -12.1 0 1 178.11 462.82
  Q 181.88 465.21 180.90 460.82
  A 0.77 0.62 -2.4 0 0 180.22 460.32
  C 175.94 460.02 172.93 459.85 171.17 463.67
  Q 169.74 466.78 172.19 468.08
  L 176.92 470.58
  Q 179.70 472.05 178.13 473.35
  C 175.79 475.27 168.80 472.01 171.46 476.32
  A 1.22 1.20 81.0 0 0 172.20 476.87
  C 181.66 479.28 186.85 469.84 176.05 466.70
  Q 173.79 466.04 174.71 463.87"
/>
<path stroke="#808080" vector-effect="non-scaling-stroke" d="
  M 206.33 475.66
  Q 210.20 478.10 214.74 477.26
  A 1.15 1.02 2.8 0 0 215.59 476.58
  Q 216.02 475.37 215.55 474.24
  A 0.79 0.35 -16.3 0 0 214.73 474.13
  C 204.78 476.84 203.75 460.85 215.03 463.25
  A 0.79 0.71 21.9 0 0 215.82 462.96
  C 217.34 460.72 215.46 460.22 213.70 460.17
  Q 201.95 459.85 203.64 471.47
  Q 204.04 474.21 206.33 475.66"
/>
<path stroke="#808080" vector-effect="non-scaling-stroke" d="
  M 231.25 472.73
  L 235.49 472.47
  A 0.79 0.67 -7.0 0 1 236.29 472.99
  L 236.96 476.01
  A 1.02 0.36 80.2 0 0 237.43 476.84
  L 240.75 477.27
  A 0.64 0.34 78.6 0 0 240.99 476.46
  L 236.31 460.94
  A 0.76 0.40 76.9 0 0 235.82 460.38
  L 231.43 460.38
  A 0.79 0.35 -76.3 0 0 230.96 460.99
  L 226.58 475.32
  A 1.15 0.15 -72.2 0 0 226.39 476.35
  Q 227.82 478.21 229.74 476.70
  A 1.23 0.25 -79.6 0 0 230.09 475.82
  L 230.71 473.24
  A 0.68 0.58 -83.5 0 1 231.25 472.73"
/>
<path stroke="#808080" vector-effect="non-scaling-stroke" d="
  M 248.00 473.75
  L 248.00 461.00
  A 0.75 0.50 90.0 0 0 247.50 460.25
  L 245.00 460.25
  A 0.75 0.50 -90.0 0 0 244.50 461.00
  L 244.50 476.75
  A 0.60 0.40 0.7 0 0 245.09 477.15
  C 246.71 477.17 256.02 478.03 255.03 474.84
  A 0.87 0.76 -7.4 0 0 254.24 474.31
  L 248.51 474.25
  A 0.51 0.50 0.0 0 1 248.00 473.75"
/>
<path stroke="#808080" vector-effect="non-scaling-stroke" d="
  M 276.93 470.07
  L 282.26 469.81
  A 0.97 0.62 3.1 0 0 283.10 469.33
  Q 283.44 468.20 282.69 467.30
  A 1.32 0.64 -8.3 0 0 281.75 467.00
  L 277.26 466.99
  A 1.11 0.56 72.5 0 1 276.54 466.25
  Q 276.03 464.97 276.46 463.75
  A 0.87 0.75 8.5 0 1 277.25 463.25
  L 282.50 463.25
  A 1.02 0.76 -70.2 0 0 283.25 462.75
  Q 283.78 461.85 283.33 460.93
  A 1.05 0.59 -5.5 0 0 282.50 460.56
  L 273.75 460.26
  A 0.50 0.42 -88.8 0 0 273.32 460.75
  L 273.03 475.19
  A 1.77 1.69 -89.3 0 0 274.72 477.00
  L 282.99 477.00
  A 0.56 0.51 -86.9 0 0 283.50 476.50
  Q 283.60 475.37 283.17 474.32
  A 1.02 0.51 -6.9 0 0 282.25 473.99
  L 277.25 474.23
  A 0.68 0.54 -3.3 0 1 276.55 473.74
  L 276.30 470.82
  A 0.69 0.66 86.3 0 1 276.93 470.07"
/>
<path stroke="#808080" vector-effect="non-scaling-stroke" d="
  M 309.00 466.81
  Q 307.93 465.34 308.39 463.52
  A 0.60 0.56 10.2 0 1 309.03 463.11
  C 310.47 463.28 316.14 464.19 315.13 461.01
  A 0.71 0.66 81.5 0 0 314.50 460.51
  L 305.50 460.29
  A 0.70 0.47 -89.3 0 0 305.01 461.00
  L 305.02 476.44
  A 0.81 0.71 0.8 0 0 305.81 477.15
  L 314.24 477.30
  A 1.21 1.02 -5.8 0 0 315.48 476.01
  L 315.00 474.26
  A 0.70 0.57 -10.1 0 0 314.27 473.85
  L 309.24 474.36
  A 0.66 0.52 -9.8 0 1 308.56 473.99
  Q 308.05 472.22 308.38 470.43
  A 0.69 0.55 2.2 0 1 309.00 469.97
  L 313.75 469.72
  A 1.24 0.36 0.7 0 0 314.71 469.45
  Q 315.32 468.60 314.83 467.68
  A 1.22 0.72 69.5 0 0 313.99 467.00
  L 309.75 466.99
  A 0.95 0.30 -3.7 0 1 309.00 466.81"
/>
<path stroke="#808080" vector-effect="non-scaling-stroke" d="
  M 324.53 470.39
  Q 326.16 470.79 326.55 472.48
  L 327.52 476.74
  A 0.62 0.56 75.1 0 0 328.25 477.21
  Q 329.46 476.84 330.75 477.02
  A 0.42 0.42 88.0 0 0 331.22 476.51
  Q 330.40 472.78 328.59 469.43
  A 0.83 0.58 -41.8 0 1 328.78 468.62
  C 335.65 460.99 324.68 459.86 319.59 460.35
  A 0.66 0.65 -2.9 0 0 319.00 461.00
  L 319.00 476.50
  A 0.75 0.50 90.0 0 0 319.50 477.25
  L 321.75 477.26
  A 0.80 0.62 -86.0 0 0 322.39 476.55
  C 322.65 474.06 321.28 469.61 324.53 470.39"
/>
<path stroke="#808080" vector-effect="non-scaling-stroke" d="
  M 346.71 460.49
  C 327.65 457.43 330.72 482.65 347.40 476.50
  A 0.92 0.77 -11.6 0 0 347.99 475.75
  L 348.22 468.50
  A 0.78 0.72 2.8 0 0 347.49 467.76
  L 342.76 467.45
  A 1.13 0.36 -55.0 0 0 342.01 468.02
  Q 341.51 468.64 342.00 469.26
  A 1.28 0.30 54.7 0 0 342.72 469.90
  Q 345.91 470.54 344.45 473.94
  A 0.93 0.56 6.5 0 1 343.66 474.30
  Q 335.38 474.38 337.86 466.01
  Q 338.64 463.40 341.35 463.35
  L 346.51 463.26
  A 0.94 0.58 4.2 0 0 347.34 462.83
  Q 347.63 461.93 347.49 461.00
  A 0.96 0.50 5.5 0 0 346.71 460.49"
/>
<path stroke="#808080" vector-effect="non-scaling-stroke" d="
  M 356.06 469.86
  C 358.09 470.03 362.75 470.65 362.02 467.86
  A 0.87 0.77 -5.3 0 0 361.24 467.29
  L 356.25 467.02
  A 0.79 0.50 2.2 0 1 355.50 466.50
  L 355.50 463.50
  A 0.71 0.56 2.3 0 1 356.26 462.95
  L 361.00 463.27
  A 1.12 0.57 8.5 0 0 361.98 462.94
  Q 362.49 461.95 362.18 460.81
  A 0.99 0.70 -6.2 0 0 361.25 460.29
  L 352.50 460.49
  A 0.71 0.57 86.9 0 0 351.95 461.25
  Q 352.55 468.87 351.90 476.50
  A 0.59 0.46 2.1 0 0 352.50 477.00
  L 361.75 477.00
  A 0.95 0.79 -73.2 0 0 362.50 476.50
  Q 362.95 475.70 362.68 474.82
  A 1.25 0.49 8.1 0 0 361.75 474.29
  Q 359.00 473.68 356.25 474.23
  A 0.64 0.52 -6.4 0 1 355.50 473.75
  L 355.50 470.25
  A 0.52 0.40 3.2 0 1 356.06 469.86"
/>
<path stroke="#808080" vector-effect="non-scaling-stroke" d="
  M 384.0027 460.8408
  A 0.54 0.54 0.0 0 0 383.4534 460.3103
  L 381.0538 460.3522
  A 0.54 0.54 0.0 0 0 380.5233 460.9016
  L 380.7973 476.5992
  A 0.54 0.54 0.0 0 0 381.3466 477.1297
  L 383.7462 477.0878
  A 0.54 0.54 0.0 0 0 384.2767 476.5384
  L 384.0027 460.8408"
/>
<path stroke="#808080" vector-effect="non-scaling-stroke" d="
  M 389.81 475.03
  Q 393.85 478.06 398.46 477.15
  C 399.85 476.87 401.28 475.90 399.69 474.53
  A 1.20 0.96 -24.3 0 0 398.79 474.30
  C 387.74 475.79 389.20 460.67 399.03 463.23
  A 1.10 0.75 22.5 0 0 400.03 463.02
  Q 400.76 462.11 400.61 460.93
  A 0.85 0.52 6.0 0 0 399.94 460.42
  C 391.21 458.72 384.63 465.16 388.76 473.74
  Q 389.13 474.51 389.81 475.03"
/>
<path stroke="#0d94b6" vector-effect="non-scaling-stroke" d="
  M 274.31 160.58
  C 256.37 174.78 243.00 199.35 244.68 222.24
  C 245.72 236.41 253.42 253.33 261.81 264.69
  Q 270.46 276.38 285.71 293.10
  A 0.36 0.31 34.9 0 0 286.29 293.04
  Q 286.39 292.77 286.29 292.51
  C 271.52 255.35 291.67 223.18 308.64 191.47
  C 317.61 174.71 324.62 158.08 322.18 139.05
  C 321.71 135.38 320.18 131.06 319.58 126.98
  Q 319.35 125.44 318.17 126.45
  C 304.57 137.98 288.89 149.04 274.31 160.58"
/>
<path stroke="#32d1e7" vector-effect="non-scaling-stroke" d="
  M 267.77 257.55
  C 268.96 258.92 271.16 262.79 271.60 257.16
  Q 272.95 240.20 279.93 224.72
  C 283.58 216.62 308.29 170.51 303.67 162.58
  C 301.72 159.23 299.26 161.31 297.23 163.29
  Q 288.14 172.14 283.94 174.69
  C 275.13 180.02 271.11 183.66 264.11 191.46
  C 252.56 204.32 247.90 218.43 255.30 235.15
  C 258.91 243.31 261.09 249.90 267.77 257.55"
/>
<path stroke="#0d94b6" vector-effect="non-scaling-stroke" d="
  M 327.01 231.78
  C 321.22 245.29 315.28 262.73 314.33 276.26
  Q 312.64 300.56 328.33 319.91
  A 0.38 0.37 -50.8 0 0 328.96 319.84
  Q 341.10 296.25 337.70 271.00
  C 336.19 259.74 331.19 244.67 327.85 231.85
  Q 327.52 230.59 327.01 231.78"
/>
<path stroke="#32d1e7" vector-effect="non-scaling-stroke" d="
  M 326.79 250.75
  Q 320.82 263.67 323.95 277.76
  A 1.02 0.40 73.2 0 1 323.88 278.63
  L 321.51 280.75
  A 1.32 0.40 87.3 0 0 321.26 281.74
  Q 320.86 294.92 327.02 306.44
  Q 327.79 307.87 328.52 306.47
  C 336.65 290.87 332.11 266.95 327.46 250.89
  Q 327.17 249.91 326.79 250.75"
/>
<path stroke="#808080" vector-effect="non-scaling-stroke" d="
  M 392.9076 449.2196
  A 5.93 4.26 90.7 0 0 397.2397 443.3420
  A 5.93 4.26 90.7 0 0 393.0524 437.3604
  A 5.93 4.26 90.7 0 0 388.7203 443.2380
  A 5.93 4.26 90.7 0 0 392.9076 449.2196"
/>
<path stroke="#808080" vector-effect="non-scaling-stroke" d="
  M 191.8616 449.1798
  A 5.91 4.29 89.5 0 0 196.0998 443.2326
  A 5.91 4.29 89.5 0 0 191.7584 437.3602
  A 5.91 4.29 89.5 0 0 187.5202 443.3074
  A 5.91 4.29 89.5 0 0 191.8616 449.1798"
/>
<path stroke="#808080" vector-effect="non-scaling-stroke" d="
  M 244.5788 449.2399
  A 5.90 4.27 90.4 0 0 248.8899 443.3698
  A 5.90 4.27 90.4 0 0 244.6612 437.4401
  A 5.90 4.27 90.4 0 0 240.3501 443.3102
  A 5.90 4.27 90.4 0 0 244.5788 449.2399"
/>
<path stroke="#808080" vector-effect="non-scaling-stroke" d="
  M 229.61 439.20
  C 228.17 438.13 226.04 437.35 224.37 437.36
  A 1.01 0.89 0.3 0 0 223.36 438.24
  L 223.28 448.75
  A 0.73 0.53 -1.6 0 0 224.05 449.28
  Q 232.87 448.86 230.27 440.04
  A 1.92 1.13 21.4 0 0 229.61 439.20"
/>
<path stroke="#808080" vector-effect="non-scaling-stroke" d="
  M 264.53 448.98
  C 273.71 450.19 273.68 436.26 264.58 437.56
  A 0.70 0.68 85.7 0 0 264.00 438.25
  L 264.00 448.50
  A 0.61 0.46 4.7 0 0 264.53 448.98"
/>
<path stroke="#808080" vector-effect="non-scaling-stroke" d="
  M 192.6585 474.5497
  A 5.87 4.27 90.6 0 0 196.9898 468.7247
  A 5.87 4.27 90.6 0 0 192.7815 462.8103
  A 5.87 4.27 90.6 0 0 188.4502 468.6353
  A 5.87 4.27 90.6 0 0 192.6585 474.5497"
/>
<path stroke="#808080" vector-effect="non-scaling-stroke" d="
  M 410.2503 474.6800
  A 5.92 4.31 89.9 0 0 414.5500 468.7525
  A 5.92 4.31 89.9 0 0 410.2297 462.8400
  A 5.92 4.31 89.9 0 0 405.9300 468.7675
  A 5.92 4.31 89.9 0 0 410.2503 474.6800"
/>
<path stroke="#808080" vector-effect="non-scaling-stroke" d="
  M 231.46 470.02
  A 0.36 0.36 -84.8 0 0 231.83 470.46
  L 235.35 470.28
  A 0.36 0.36 -10.8 0 0 235.67 469.80
  L 233.61 463.88
  A 0.36 0.36 42.7 0 0 232.92 463.92
  L 231.46 470.02"
/>
<path stroke="#808080" vector-effect="non-scaling-stroke" d="
  M 323.00 467.75
  Q 327.16 468.66 327.27 464.54
  A 1.10 0.80 -79.4 0 0 326.82 463.60
  Q 321.04 460.71 322.69 467.48
  A 0.43 0.34 2.8 0 0 323.00 467.75"
/>
</g>
<path fill="#ffffff" d="
  M 0.00 0.00
  L 600.00 0.00
  L 600.00 600.00
  L 0.00 600.00
  L 0.00 0.00
  Z
  M 337.68 92.68
  Q 323.12 109.01 307.67 121.17
  C 293.25 132.52 275.70 141.44 261.54 153.56
  C 242.96 169.45 234.57 194.09 236.91 217.62
  C 240.58 254.43 268.73 288.66 295.34 312.61
  Q 295.71 312.95 295.62 312.46
  Q 295.02 309.38 292.83 300.93
  C 288.87 285.70 287.57 267.68 290.37 252.15
  C 296.56 217.71 321.95 196.79 335.90 166.41
  C 346.70 142.87 345.69 117.12 338.05 92.75
  Q 337.93 92.39 337.68 92.68
  Z
  M 326.59 204.85
  C 318.15 224.12 310.22 243.81 306.56 264.74
  C 301.61 293.02 311.22 315.78 328.98 336.92
  A 0.38 0.37 41.5 0 0 329.58 336.89
  C 345.91 312.21 350.54 284.42 343.87 255.72
  C 339.86 238.43 333.43 221.57 327.49 204.88
  Q 327.08 203.72 326.59 204.85
  Z
  M 288.93 373.90
  C 291.59 384.34 308.14 388.60 316.83 390.89
  C 322.67 392.44 327.95 399.24 319.77 403.09
  Q 317.55 404.13 315.26 404.31
  Q 302.81 405.31 291.25 400.76
  A 0.50 0.48 18.7 0 0 290.59 401.07
  L 287.64 411.92
  A 0.56 0.52 16.4 0 0 288.02 412.56
  C 301.79 416.90 338.82 420.32 342.16 398.87
  C 345.60 376.72 305.32 379.23 306.84 369.11
  C 308.24 359.77 328.60 363.88 334.54 365.94
  A 0.56 0.40 19.1 0 0 335.21 365.74
  L 338.50 356.27
  A 1.50 1.44 -72.7 0 0 337.54 354.35
  Q 322.42 350.14 306.29 353.39
  C 296.87 355.29 286.04 362.57 288.93 373.90
  Z
  M 195.75 390.09
  L 223.00 390.09
  A 0.75 0.34 0.0 0 0 223.75 389.75
  L 224.00 379.31
  A 0.50 0.50 -89.4 0 0 223.50 378.80
  L 196.00 378.44
  A 0.94 0.76 -89.7 0 1 195.25 377.50
  L 195.25 364.75
  A 0.50 0.50 0.0 0 1 195.75 364.25
  L 225.50 364.25
  A 0.73 0.43 -0.3 0 0 226.23 363.81
  L 226.00 353.25
  A 0.75 0.51 -0.4 0 0 225.25 352.75
  L 178.00 352.75
  A 0.75 0.75 0.0 0 0 177.25 353.50
  L 177.25 414.50
  A 0.81 0.80 -0.4 0 0 178.07 415.30
  L 194.81 415.09
  A 0.44 0.34 0.0 0 0 195.25 414.75
  L 195.25 390.75
  A 0.66 0.50 -90.0 0 1 195.75 390.09
  Z
  M 266.25 353.27
  A 0.39 0.39 0.0 0 0 265.86 352.88
  L 248.64 352.88
  A 0.39 0.39 0.0 0 0 248.25 353.27
  L 248.25 414.69
  A 0.39 0.39 0.0 0 0 248.64 415.08
  L 265.86 415.08
  A 0.39 0.39 0.0 0 0 266.25 414.69
  L 266.25 353.27
  Z
  M 381.75 388.75
  L 410.00 388.75
  A 0.76 0.75 90.0 0 0 410.75 387.99
  L 410.75 377.75
  A 0.50 0.49 0.0 0 0 410.25 377.26
  L 382.06 377.27
  A 0.66 0.61 86.9 0 1 381.45 376.68
  Q 380.94 370.72 381.54 364.75
  A 0.73 0.54 2.1 0 1 382.25 364.26
  L 411.82 364.29
  A 0.68 0.55 -0.0 0 0 412.50 363.74
  L 412.50 353.25
  A 0.50 0.50 0.0 0 0 412.00 352.75
  L 364.74 352.75
  A 1.56 1.46 90.0 0 0 363.28 354.31
  L 363.34 414.75
  A 0.57 0.41 90.0 0 0 363.75 415.32
  L 413.50 415.27
  A 0.77 0.75 -90.0 0 0 414.25 414.50
  L 414.25 404.25
  A 0.50 0.50 0.0 0 0 413.75 403.75
  L 381.75 403.75
  A 0.50 0.50 0.0 0 1 381.25 403.25
  L 381.25 389.25
  A 0.50 0.50 0.0 0 1 381.75 388.75
  Z
  M 396.0911 430.7189
  A 2.46 1.11 -37.9 0 0 393.4681 431.3541
  A 2.46 1.11 -37.9 0 0 392.2089 433.7411
  A 2.46 1.11 -37.9 0 0 394.8319 433.1059
  A 2.46 1.11 -37.9 0 0 396.0911 430.7189
  Z
  M 392.2558 452.0531
  A 8.72 7.95 94.5 0 0 400.8655 443.9837
  A 8.72 7.95 94.5 0 0 393.6242 434.6669
  A 8.72 7.95 94.5 0 0 385.0145 442.7363
  A 8.72 7.95 94.5 0 0 392.2558 452.0531
  Z
  M 191.2287 452.1027
  A 8.78 7.98 93.6 0 0 199.7443 443.8411
  A 8.78 7.98 93.6 0 0 192.3313 434.5773
  A 8.78 7.98 93.6 0 0 183.8157 442.8389
  A 8.78 7.98 93.6 0 0 191.2287 452.1027
  Z
  M 212.92 445.77
  Q 210.34 441.71 208.19 437.38
  C 207.05 435.08 205.33 434.55 203.00 435.10
  A 0.69 0.56 84.9 0 0 202.56 435.75
  L 202.71 451.00
  A 0.76 0.54 89.5 0 0 203.25 451.75
  L 205.26 451.76
  A 0.76 0.48 90.0 0 0 205.74 451.00
  L 205.74 440.00
  Q 205.74 438.90 206.29 439.95
  L 211.79 450.45
  A 1.32 0.48 67.5 0 0 212.50 451.23
  L 215.68 451.82
  A 0.56 0.49 -85.8 0 0 216.25 451.25
  L 216.25 435.25
  A 0.59 0.47 5.6 0 0 215.75 434.77
  Q 214.59 434.59 213.49 434.97
  A 0.83 0.74 81.4 0 0 212.98 435.75
  L 213.24 445.75
  Q 213.25 446.29 212.92 445.77
  Z
  M 243.8175 452.0312
  A 8.74 8.02 95.4 0 0 252.6244 444.0847
  A 8.74 8.02 95.4 0 0 245.4625 434.6288
  A 8.74 8.02 95.4 0 0 236.6556 442.5753
  A 8.74 8.02 95.4 0 0 243.8175 452.0312
  Z
  M 330.54 434.71
  C 314.87 434.29 318.09 455.89 332.35 451.49
  A 0.94 0.87 -6.0 0 0 333.00 450.75
  Q 333.12 449.76 332.44 449.06
  A 1.01 0.93 -25.6 0 0 331.55 448.79
  C 320.07 450.75 322.28 434.89 331.52 438.13
  A 0.71 0.66 27.3 0 0 332.30 437.91
  Q 334.59 434.82 330.54 434.71
  Z
  M 339.35 448.32
  L 339.44 436.00
  A 0.95 0.28 -89.5 0 0 339.18 435.08
  L 336.26 434.74
  A 0.74 0.46 -88.1 0 0 335.75 435.50
  L 335.90 450.75
  A 0.77 0.62 -89.3 0 0 336.50 451.52
  L 345.50 451.71
  A 0.73 0.53 3.6 0 0 346.23 451.25
  Q 346.37 450.19 346.10 449.18
  A 0.94 0.56 -4.2 0 0 345.25 448.75
  L 340.00 448.75
  A 0.65 0.42 0.4 0 1 339.35 448.32
  Z
  M 351.01 451.18
  C 363.23 455.82 360.97 442.43 361.48 435.79
  A 0.72 0.57 -84.6 0 0 360.99 435.03
  L 358.50 434.75
  A 0.52 0.49 -85.9 0 0 357.95 435.25
  L 357.57 447.01
  A 1.27 1.25 -21.6 0 1 357.20 447.85
  Q 354.42 450.54 352.50 448.23
  C 350.73 446.09 351.51 438.91 351.48 436.04
  A 0.92 0.65 -85.0 0 0 351.00 435.22
  Q 349.79 434.84 348.50 435.03
  A 0.52 0.46 -4.3 0 0 348.05 435.49
  L 348.27 447.48
  Q 348.31 450.16 351.01 451.18
  Z
  M 371.08 437.31
  Q 374.28 439.66 374.79 436.05
  A 0.79 0.75 13.7 0 0 374.26 435.22
  C 369.30 433.57 362.04 436.32 365.63 442.68
  A 1.54 1.41 -1.3 0 0 366.34 443.30
  Q 368.58 444.24 370.80 445.27
  C 372.78 446.18 372.50 448.30 370.49 448.78
  Q 368.20 449.33 365.95 448.35
  A 0.83 0.56 30.2 0 0 365.14 448.40
  Q 364.29 449.26 364.51 450.51
  A 1.10 0.79 9.6 0 0 365.20 451.21
  C 368.52 452.41 373.07 452.53 374.97 449.01
  Q 376.53 446.12 373.95 443.39
  C 373.14 442.54 363.73 439.57 370.20 437.46
  A 1.01 0.18 -20.0 0 1 371.08 437.31
  Z
  M 382.1077 435.5251
  A 0.68 0.68 0.0 0 0 381.4337 434.8392
  L 379.3938 434.8214
  A 0.68 0.68 0.0 0 0 378.7079 435.4955
  L 378.5723 451.0349
  A 0.68 0.68 0.0 0 0 379.2463 451.7208
  L 381.2862 451.7386
  A 0.68 0.68 0.0 0 0 381.9721 451.0645
  L 382.1077 435.5251
  Z
  M 407.25 439.50
  L 413.01 450.72
  A 1.87 1.27 7.5 0 0 413.81 451.43
  Q 415.22 452.07 416.75 452.00
  A 0.81 0.43 -87.6 0 0 417.19 451.25
  Q 417.81 443.37 417.15 435.50
  A 0.82 0.71 -87.0 0 0 416.60 434.79
  C 413.85 434.11 414.32 436.20 414.28 437.90
  Q 414.15 442.44 414.36 446.97
  A 0.25 0.18 -89.7 0 1 414.16 447.24
  Q 414.03 447.22 413.96 447.04
  Q 411.82 441.22 408.45 435.98
  A 1.48 0.59 64.6 0 0 407.74 435.32
  Q 405.86 434.80 403.99 435.18
  A 0.58 0.54 84.0 0 0 403.56 435.75
  L 403.71 451.00
  A 0.76 0.67 12.1 0 0 404.19 451.65
  C 406.34 452.50 407.02 451.42 407.02 449.41
  Q 407.04 444.45 406.83 439.56
  Q 406.79 438.60 407.25 439.50
  Z
  M 175.24 444.55
  L 179.26 445.21
  A 1.07 0.81 20.4 0 0 180.20 444.93
  Q 181.19 443.73 180.55 442.23
  A 0.93 0.32 -1.1 0 0 179.75 441.97
  L 175.43 441.89
  A 0.70 0.64 0.9 0 1 174.75 441.25
  L 174.74 438.49
  A 0.72 0.63 -0.9 0 1 175.44 437.86
  L 180.25 437.77
  A 1.21 0.55 4.7 0 0 181.17 437.44
  Q 181.79 436.47 181.33 435.44
  A 0.96 0.70 -8.2 0 0 180.50 435.00
  L 171.75 435.00
  A 0.50 0.46 -90.0 0 0 171.29 435.50
  L 171.43 450.50
  A 1.29 0.79 -79.6 0 0 171.80 451.45
  Q 172.98 452.30 174.31 451.85
  A 0.95 0.66 83.3 0 0 174.77 450.99
  L 174.67 445.01
  A 0.49 0.47 4.7 0 1 175.24 444.55
  Z
  M 230.83 436.21
  Q 226.05 433.98 220.27 435.21
  A 0.63 0.52 -7.8 0 0 219.77 435.75
  L 220.10 450.68
  A 1.31 1.30 87.5 0 0 221.49 451.96
  C 229.34 451.45 236.28 450.68 233.94 440.09
  Q 233.34 437.38 230.83 436.21
  Z
  M 271.81 436.44
  Q 267.17 433.97 261.13 435.16
  A 0.78 0.57 -7.6 0 0 260.50 435.76
  L 260.50 451.00
  A 0.70 0.64 4.1 0 0 261.11 451.64
  C 265.36 452.19 270.81 452.08 273.48 448.37
  C 275.64 445.37 275.58 438.44 271.81 436.44
  Z
  M 282.51 444.52
  L 286.75 444.51
  A 0.99 0.73 4.5 0 0 287.68 443.93
  Q 287.91 442.92 287.60 441.92
  A 0.88 0.65 -9.1 0 0 286.75 441.48
  L 282.26 441.80
  A 0.68 0.53 -0.9 0 1 281.53 441.25
  L 281.73 438.04
  A 1.04 0.30 0.3 0 1 282.75 437.75
  L 287.50 437.75
  A 0.75 0.50 -0.0 0 0 288.25 437.25
  L 288.25 435.75
  A 0.52 0.51 -89.4 0 0 287.75 435.23
  L 278.25 435.04
  A 0.45 0.41 -89.4 0 0 277.83 435.49
  L 277.78 451.00
  A 0.54 0.45 4.3 0 0 278.25 451.46
  Q 283.13 452.10 288.00 451.46
  A 0.57 0.45 -4.2 0 0 288.50 451.00
  L 288.50 449.25
  A 0.75 0.50 0.0 0 0 287.75 448.75
  L 282.00 448.75
  A 0.64 0.62 83.6 0 1 281.39 448.25
  Q 281.00 446.38 281.77 444.69
  A 0.83 0.22 1.7 0 1 282.51 444.52
  Z
  M 299.9361 435.6478
  A 0.62 0.62 0.0 0 0 299.3118 435.0322
  L 297.0119 435.0482
  A 0.62 0.62 0.0 0 0 296.3962 435.6725
  L 296.5039 451.0922
  A 0.62 0.62 0.0 0 0 297.1282 451.7078
  L 299.4281 451.6918
  A 0.62 0.62 0.0 0 0 300.0438 451.0675
  L 299.9361 435.6478
  Z
  M 307.03 438.98
  L 313.10 450.86
  A 1.42 0.98 3.8 0 0 313.82 451.43
  Q 315.33 451.96 316.94 451.69
  A 1.00 0.35 88.8 0 0 317.25 450.75
  L 317.25 435.75
  A 0.68 0.63 -84.9 0 0 316.74 435.09
  Q 313.66 434.52 313.87 437.41
  C 314.08 440.44 313.97 443.46 314.06 446.51
  Q 314.07 447.01 313.85 446.56
  Q 311.45 441.90 309.08 437.22
  C 307.94 434.96 306.13 434.19 303.90 435.50
  A 0.82 0.78 73.0 0 0 303.52 436.26
  Q 303.97 442.63 303.50 449.01
  Q 303.22 452.67 306.52 451.62
  A 0.72 0.60 -10.5 0 0 307.03 451.00
  L 306.54 439.00
  A 0.20 0.03 86.4 0 1 306.56 438.81
  L 306.75 438.75
  A 0.34 0.16 64.7 0 1 307.03 438.98
  Z
  M 356.75 457.37
  Q 355.79 458.37 357.22 458.70
  Q 360.32 459.40 360.57 456.56
  A 0.63 0.57 -0.7 0 0 359.88 455.95
  Q 357.96 456.11 356.75 457.37
  Z
  M 192.1623 477.5454
  A 8.82 8.00 93.3 0 0 200.6567 469.2005
  A 8.82 8.00 93.3 0 0 193.1777 459.9346
  A 8.82 8.00 93.3 0 0 184.6833 468.2795
  A 8.82 8.00 93.3 0 0 192.1623 477.5454
  Z
  M 223.2806 460.7549
  A 0.56 0.56 0.0 0 0 222.7284 460.1872
  L 220.3887 460.1545
  A 0.56 0.56 0.0 0 0 219.8209 460.7066
  L 219.5994 476.5651
  A 0.56 0.56 0.0 0 0 220.1516 477.1328
  L 222.4913 477.1655
  A 0.56 0.56 0.0 0 0 223.0591 476.6134
  L 223.2806 460.7549
  Z
  M 290.89 465.27
  Q 293.12 470.04 296.14 475.58
  Q 297.63 478.33 300.36 476.53
  A 0.97 0.83 76.1 0 0 300.75 475.75
  L 300.75 461.50
  A 0.99 0.30 -87.4 0 0 300.54 460.66
  Q 299.51 460.07 298.23 460.03
  A 0.74 0.50 -88.6 0 0 297.71 460.75
  L 297.49 471.50
  Q 297.46 472.62 297.02 471.50
  Q 295.00 466.42 292.06 461.80
  C 290.99 460.10 289.74 459.85 287.90 460.33
  A 0.73 0.69 -7.5 0 0 287.35 461.01
  L 287.28 476.75
  A 0.56 0.47 5.7 0 0 287.75 477.23
  Q 288.92 477.41 290.00 477.03
  A 0.90 0.65 82.7 0 0 290.44 476.22
  L 290.28 465.40
  Q 290.26 463.93 290.89 465.27
  Z
  M 369.65 463.75
  L 369.54 476.25
  A 0.80 0.77 13.6 0 0 370.00 476.97
  Q 371.25 477.55 372.51 477.03
  A 0.85 0.74 78.9 0 0 372.96 476.25
  L 372.71 463.75
  A 0.54 0.49 -0.5 0 1 373.25 463.25
  L 376.50 463.24
  A 0.89 0.69 9.4 0 0 377.26 462.83
  Q 378.67 459.75 375.00 460.17
  Q 370.27 460.71 365.58 460.08
  A 0.49 0.49 0.0 0 0 365.02 460.50
  Q 364.84 461.79 365.21 463.01
  A 0.75 0.73 -11.7 0 0 366.01 463.52
  L 369.31 463.15
  A 0.58 0.31 88.5 0 1 369.65 463.75
  Z
  M 409.6868 477.4907
  A 8.80 7.98 93.8 0 0 418.2325 469.2389
  A 8.80 7.98 93.8 0 0 410.8532 459.9293
  A 8.80 7.98 93.8 0 0 402.3075 468.1811
  A 8.80 7.98 93.8 0 0 409.6868 477.4907
  Z
  M 174.71 463.87
  Q 175.07 463.00 177.02 462.75
  A 1.50 0.42 -12.1 0 1 178.11 462.82
  Q 181.88 465.21 180.90 460.82
  A 0.77 0.62 -2.4 0 0 180.22 460.32
  C 175.94 460.02 172.93 459.85 171.17 463.67
  Q 169.74 466.78 172.19 468.08
  L 176.92 470.58
  Q 179.70 472.05 178.13 473.35
  C 175.79 475.27 168.80 472.01 171.46 476.32
  A 1.22 1.20 81.0 0 0 172.20 476.87
  C 181.66 479.28 186.85 469.84 176.05 466.70
  Q 173.79 466.04 174.71 463.87
  Z
  M 206.33 475.66
  Q 210.20 478.10 214.74 477.26
  A 1.15 1.02 2.8 0 0 215.59 476.58
  Q 216.02 475.37 215.55 474.24
  A 0.79 0.35 -16.3 0 0 214.73 474.13
  C 204.78 476.84 203.75 460.85 215.03 463.25
  A 0.79 0.71 21.9 0 0 215.82 462.96
  C 217.34 460.72 215.46 460.22 213.70 460.17
  Q 201.95 459.85 203.64 471.47
  Q 204.04 474.21 206.33 475.66
  Z
  M 231.25 472.73
  L 235.49 472.47
  A 0.79 0.67 -7.0 0 1 236.29 472.99
  L 236.96 476.01
  A 1.02 0.36 80.2 0 0 237.43 476.84
  L 240.75 477.27
  A 0.64 0.34 78.6 0 0 240.99 476.46
  L 236.31 460.94
  A 0.76 0.40 76.9 0 0 235.82 460.38
  L 231.43 460.38
  A 0.79 0.35 -76.3 0 0 230.96 460.99
  L 226.58 475.32
  A 1.15 0.15 -72.2 0 0 226.39 476.35
  Q 227.82 478.21 229.74 476.70
  A 1.23 0.25 -79.6 0 0 230.09 475.82
  L 230.71 473.24
  A 0.68 0.58 -83.5 0 1 231.25 472.73
  Z
  M 248.00 473.75
  L 248.00 461.00
  A 0.75 0.50 90.0 0 0 247.50 460.25
  L 245.00 460.25
  A 0.75 0.50 -90.0 0 0 244.50 461.00
  L 244.50 476.75
  A 0.60 0.40 0.7 0 0 245.09 477.15
  C 246.71 477.17 256.02 478.03 255.03 474.84
  A 0.87 0.76 -7.4 0 0 254.24 474.31
  L 248.51 474.25
  A 0.51 0.50 0.0 0 1 248.00 473.75
  Z
  M 276.93 470.07
  L 282.26 469.81
  A 0.97 0.62 3.1 0 0 283.10 469.33
  Q 283.44 468.20 282.69 467.30
  A 1.32 0.64 -8.3 0 0 281.75 467.00
  L 277.26 466.99
  A 1.11 0.56 72.5 0 1 276.54 466.25
  Q 276.03 464.97 276.46 463.75
  A 0.87 0.75 8.5 0 1 277.25 463.25
  L 282.50 463.25
  A 1.02 0.76 -70.2 0 0 283.25 462.75
  Q 283.78 461.85 283.33 460.93
  A 1.05 0.59 -5.5 0 0 282.50 460.56
  L 273.75 460.26
  A 0.50 0.42 -88.8 0 0 273.32 460.75
  L 273.03 475.19
  A 1.77 1.69 -89.3 0 0 274.72 477.00
  L 282.99 477.00
  A 0.56 0.51 -86.9 0 0 283.50 476.50
  Q 283.60 475.37 283.17 474.32
  A 1.02 0.51 -6.9 0 0 282.25 473.99
  L 277.25 474.23
  A 0.68 0.54 -3.3 0 1 276.55 473.74
  L 276.30 470.82
  A 0.69 0.66 86.3 0 1 276.93 470.07
  Z
  M 309.00 466.81
  Q 307.93 465.34 308.39 463.52
  A 0.60 0.56 10.2 0 1 309.03 463.11
  C 310.47 463.28 316.14 464.19 315.13 461.01
  A 0.71 0.66 81.5 0 0 314.50 460.51
  L 305.50 460.29
  A 0.70 0.47 -89.3 0 0 305.01 461.00
  L 305.02 476.44
  A 0.81 0.71 0.8 0 0 305.81 477.15
  L 314.24 477.30
  A 1.21 1.02 -5.8 0 0 315.48 476.01
  L 315.00 474.26
  A 0.70 0.57 -10.1 0 0 314.27 473.85
  L 309.24 474.36
  A 0.66 0.52 -9.8 0 1 308.56 473.99
  Q 308.05 472.22 308.38 470.43
  A 0.69 0.55 2.2 0 1 309.00 469.97
  L 313.75 469.72
  A 1.24 0.36 0.7 0 0 314.71 469.45
  Q 315.32 468.60 314.83 467.68
  A 1.22 0.72 69.5 0 0 313.99 467.00
  L 309.75 466.99
  A 0.95 0.30 -3.7 0 1 309.00 466.81
  Z
  M 324.53 470.39
  Q 326.16 470.79 326.55 472.48
  L 327.52 476.74
  A 0.62 0.56 75.1 0 0 328.25 477.21
  Q 329.46 476.84 330.75 477.02
  A 0.42 0.42 88.0 0 0 331.22 476.51
  Q 330.40 472.78 328.59 469.43
  A 0.83 0.58 -41.8 0 1 328.78 468.62
  C 335.65 460.99 324.68 459.86 319.59 460.35
  A 0.66 0.65 -2.9 0 0 319.00 461.00
  L 319.00 476.50
  A 0.75 0.50 90.0 0 0 319.50 477.25
  L 321.75 477.26
  A 0.80 0.62 -86.0 0 0 322.39 476.55
  C 322.65 474.06 321.28 469.61 324.53 470.39
  Z
  M 346.71 460.49
  C 327.65 457.43 330.72 482.65 347.40 476.50
  A 0.92 0.77 -11.6 0 0 347.99 475.75
  L 348.22 468.50
  A 0.78 0.72 2.8 0 0 347.49 467.76
  L 342.76 467.45
  A 1.13 0.36 -55.0 0 0 342.01 468.02
  Q 341.51 468.64 342.00 469.26
  A 1.28 0.30 54.7 0 0 342.72 469.90
  Q 345.91 470.54 344.45 473.94
  A 0.93 0.56 6.5 0 1 343.66 474.30
  Q 335.38 474.38 337.86 466.01
  Q 338.64 463.40 341.35 463.35
  L 346.51 463.26
  A 0.94 0.58 4.2 0 0 347.34 462.83
  Q 347.63 461.93 347.49 461.00
  A 0.96 0.50 5.5 0 0 346.71 460.49
  Z
  M 356.06 469.86
  C 358.09 470.03 362.75 470.65 362.02 467.86
  A 0.87 0.77 -5.3 0 0 361.24 467.29
  L 356.25 467.02
  A 0.79 0.50 2.2 0 1 355.50 466.50
  L 355.50 463.50
  A 0.71 0.56 2.3 0 1 356.26 462.95
  L 361.00 463.27
  A 1.12 0.57 8.5 0 0 361.98 462.94
  Q 362.49 461.95 362.18 460.81
  A 0.99 0.70 -6.2 0 0 361.25 460.29
  L 352.50 460.49
  A 0.71 0.57 86.9 0 0 351.95 461.25
  Q 352.55 468.87 351.90 476.50
  A 0.59 0.46 2.1 0 0 352.50 477.00
  L 361.75 477.00
  A 0.95 0.79 -73.2 0 0 362.50 476.50
  Q 362.95 475.70 362.68 474.82
  A 1.25 0.49 8.1 0 0 361.75 474.29
  Q 359.00 473.68 356.25 474.23
  A 0.64 0.52 -6.4 0 1 355.50 473.75
  L 355.50 470.25
  A 0.52 0.40 3.2 0 1 356.06 469.86
  Z
  M 384.0027 460.8408
  A 0.54 0.54 0.0 0 0 383.4534 460.3103
  L 381.0538 460.3522
  A 0.54 0.54 0.0 0 0 380.5233 460.9016
  L 380.7973 476.5992
  A 0.54 0.54 0.0 0 0 381.3466 477.1297
  L 383.7462 477.0878
  A 0.54 0.54 0.0 0 0 384.2767 476.5384
  L 384.0027 460.8408
  Z
  M 389.81 475.03
  Q 393.85 478.06 398.46 477.15
  C 399.85 476.87 401.28 475.90 399.69 474.53
  A 1.20 0.96 -24.3 0 0 398.79 474.30
  C 387.74 475.79 389.20 460.67 399.03 463.23
  A 1.10 0.75 22.5 0 0 400.03 463.02
  Q 400.76 462.11 400.61 460.93
  A 0.85 0.52 6.0 0 0 399.94 460.42
  C 391.21 458.72 384.63 465.16 388.76 473.74
  Q 389.13 474.51 389.81 475.03
  Z"
/>
<path fill="#1a6198" d="
  M 337.68 92.68
  Q 337.93 92.39 338.05 92.75
  C 345.69 117.12 346.70 142.87 335.90 166.41
  C 321.95 196.79 296.56 217.71 290.37 252.15
  C 287.57 267.68 288.87 285.70 292.83 300.93
  Q 295.02 309.38 295.62 312.46
  Q 295.71 312.95 295.34 312.61
  C 268.73 288.66 240.58 254.43 236.91 217.62
  C 234.57 194.09 242.96 169.45 261.54 153.56
  C 275.70 141.44 293.25 132.52 307.67 121.17
  Q 323.12 109.01 337.68 92.68
  Z
  M 274.31 160.58
  C 256.37 174.78 243.00 199.35 244.68 222.24
  C 245.72 236.41 253.42 253.33 261.81 264.69
  Q 270.46 276.38 285.71 293.10
  A 0.36 0.31 34.9 0 0 286.29 293.04
  Q 286.39 292.77 286.29 292.51
  C 271.52 255.35 291.67 223.18 308.64 191.47
  C 317.61 174.71 324.62 158.08 322.18 139.05
  C 321.71 135.38 320.18 131.06 319.58 126.98
  Q 319.35 125.44 318.17 126.45
  C 304.57 137.98 288.89 149.04 274.31 160.58
  Z"
/>
<path fill="#00c7d3" d="
  M 244.68 222.24
  C 243.00 199.35 256.37 174.78 274.31 160.58
  C 288.89 149.04 304.57 137.98 318.17 126.45
  Q 319.35 125.44 319.58 126.98
  C 320.18 131.06 321.71 135.38 322.18 139.05
  C 324.62 158.08 317.61 174.71 308.64 191.47
  C 291.67 223.18 271.52 255.35 286.29 292.51
  Q 286.39 292.77 286.29 293.04
  A 0.36 0.31 34.9 0 1 285.71 293.10
  Q 270.46 276.38 261.81 264.69
  C 253.42 253.33 245.72 236.41 244.68 222.24
  Z
  M 267.77 257.55
  C 268.96 258.92 271.16 262.79 271.60 257.16
  Q 272.95 240.20 279.93 224.72
  C 283.58 216.62 308.29 170.51 303.67 162.58
  C 301.72 159.23 299.26 161.31 297.23 163.29
  Q 288.14 172.14 283.94 174.69
  C 275.13 180.02 271.11 183.66 264.11 191.46
  C 252.56 204.32 247.90 218.43 255.30 235.15
  C 258.91 243.31 261.09 249.90 267.77 257.55
  Z"
/>
<path fill="#64dbfb" d="
  M 267.77 257.55
  C 261.09 249.90 258.91 243.31 255.30 235.15
  C 247.90 218.43 252.56 204.32 264.11 191.46
  C 271.11 183.66 275.13 180.02 283.94 174.69
  Q 288.14 172.14 297.23 163.29
  C 299.26 161.31 301.72 159.23 303.67 162.58
  C 308.29 170.51 283.58 216.62 279.93 224.72
  Q 272.95 240.20 271.60 257.16
  C 271.16 262.79 268.96 258.92 267.77 257.55
  Z"
/>
<path fill="#1a6198" d="
  M 326.59 204.85
  Q 327.08 203.72 327.49 204.88
  C 333.43 221.57 339.86 238.43 343.87 255.72
  C 350.54 284.42 345.91 312.21 329.58 336.89
  A 0.38 0.37 41.5 0 1 328.98 336.92
  C 311.22 315.78 301.61 293.02 306.56 264.74
  C 310.22 243.81 318.15 224.12 326.59 204.85
  Z
  M 327.01 231.78
  C 321.22 245.29 315.28 262.73 314.33 276.26
  Q 312.64 300.56 328.33 319.91
  A 0.38 0.37 -50.8 0 0 328.96 319.84
  Q 341.10 296.25 337.70 271.00
  C 336.19 259.74 331.19 244.67 327.85 231.85
  Q 327.52 230.59 327.01 231.78
  Z"
/>
<path fill="#00c7d3" d="
  M 314.33 276.26
  C 315.28 262.73 321.22 245.29 327.01 231.78
  Q 327.52 230.59 327.85 231.85
  C 331.19 244.67 336.19 259.74 337.70 271.00
  Q 341.10 296.25 328.96 319.84
  A 0.38 0.37 -50.8 0 1 328.33 319.91
  Q 312.64 300.56 314.33 276.26
  Z
  M 326.79 250.75
  Q 320.82 263.67 323.95 277.76
  A 1.02 0.40 73.2 0 1 323.88 278.63
  L 321.51 280.75
  A 1.32 0.40 87.3 0 0 321.26 281.74
  Q 320.86 294.92 327.02 306.44
  Q 327.79 307.87 328.52 306.47
  C 336.65 290.87 332.11 266.95 327.46 250.89
  Q 327.17 249.91 326.79 250.75
  Z"
/>
<path fill="#64dbfb" d="
  M 326.79 250.75
  Q 327.17 249.91 327.46 250.89
  C 332.11 266.95 336.65 290.87 328.52 306.47
  Q 327.79 307.87 327.02 306.44
  Q 320.86 294.92 321.26 281.74
  A 1.32 0.40 87.3 0 1 321.51 280.75
  L 323.88 278.63
  A 1.02 0.40 73.2 0 0 323.95 277.76
  Q 320.82 263.67 326.79 250.75
  Z"
/>
<path fill="#1b1b1a" d="
  M 316.83 390.89
  C 308.14 388.60 291.59 384.34 288.93 373.90
  C 286.04 362.57 296.87 355.29 306.29 353.39
  Q 322.42 350.14 337.54 354.35
  A 1.50 1.44 -72.7 0 1 338.50 356.27
  L 335.21 365.74
  A 0.56 0.40 19.1 0 1 334.54 365.94
  C 328.60 363.88 308.24 359.77 306.84 369.11
  C 305.32 379.23 345.60 376.72 342.16 398.87
  C 338.82 420.32 301.79 416.90 288.02 412.56
  A 0.56 0.52 16.4 0 1 287.64 411.92
  L 290.59 401.07
  A 0.50 0.48 18.7 0 1 291.25 400.76
  Q 302.81 405.31 315.26 404.31
  Q 317.55 404.13 319.77 403.09
  C 327.95 399.24 322.67 392.44 316.83 390.89
  Z"
/>
<path fill="#1b1b1a" d="
  M 195.25 390.75
  L 195.25 414.75
  A 0.44 0.34 0.0 0 1 194.81 415.09
  L 178.07 415.30
  A 0.81 0.80 -0.4 0 1 177.25 414.50
  L 177.25 353.50
  A 0.75 0.75 0.0 0 1 178.00 352.75
  L 225.25 352.75
  A 0.75 0.51 -0.4 0 1 226.00 353.25
  L 226.23 363.81
  A 0.73 0.43 -0.3 0 1 225.50 364.25
  L 195.75 364.25
  A 0.50 0.50 0.0 0 0 195.25 364.75
  L 195.25 377.50
  A 0.94 0.76 -89.7 0 0 196.00 378.44
  L 223.50 378.80
  A 0.50 0.50 -89.4 0 1 224.00 379.31
  L 223.75 389.75
  A 0.75 0.34 -0.0 0 1 223.00 390.09
  L 195.75 390.09
  A 0.66 0.50 -90.0 0 0 195.25 390.75
  Z"
/>
<rect fill="#1b1b1a" x="248.25" y="352.88" width="18.00" height="62.20" rx="0.39"/>
<path fill="#1b1b1a" d="
  M 381.25 389.25
  L 381.25 403.25
  A 0.50 0.50 0.0 0 0 381.75 403.75
  L 413.75 403.75
  A 0.50 0.50 0.0 0 1 414.25 404.25
  L 414.25 414.50
  A 0.77 0.75 -90.0 0 1 413.50 415.27
  L 363.75 415.32
  A 0.57 0.41 -90.0 0 1 363.34 414.75
  L 363.28 354.31
  A 1.56 1.46 -90.0 0 1 364.74 352.75
  L 412.00 352.75
  A 0.50 0.50 0.0 0 1 412.50 353.25
  L 412.50 363.74
  A 0.68 0.55 -0.0 0 1 411.82 364.29
  L 382.25 364.26
  A 0.73 0.54 2.1 0 0 381.54 364.75
  Q 380.94 370.72 381.45 376.68
  A 0.66 0.61 86.9 0 0 382.06 377.27
  L 410.25 377.26
  A 0.50 0.49 0.0 0 1 410.75 377.75
  L 410.75 387.99
  A 0.76 0.75 -90.0 0 1 410.00 388.75
  L 381.75 388.75
  A 0.50 0.50 0.0 0 0 381.25 389.25
  Z"
/>
<ellipse fill="#000000" cx="0.00" cy="0.00" transform="translate(394.15,432.23) rotate(-37.9)" rx="2.46" ry="1.11"/>
<path fill="#000000" d="
  M 392.2558 452.0531
  A 8.72 7.95 94.5 0 1 385.0145 442.7363
  A 8.72 7.95 94.5 0 1 393.6242 434.6669
  A 8.72 7.95 94.5 0 1 400.8655 443.9837
  A 8.72 7.95 94.5 0 1 392.2558 452.0531
  Z
  M 392.9076 449.2196
  A 5.93 4.26 90.7 0 0 397.2397 443.3420
  A 5.93 4.26 90.7 0 0 393.0524 437.3604
  A 5.93 4.26 90.7 0 0 388.7203 443.2380
  A 5.93 4.26 90.7 0 0 392.9076 449.2196
  Z"
/>
<path fill="#000000" d="
  M 191.2287 452.1027
  A 8.78 7.98 93.6 0 1 183.8157 442.8389
  A 8.78 7.98 93.6 0 1 192.3313 434.5773
  A 8.78 7.98 93.6 0 1 199.7443 443.8411
  A 8.78 7.98 93.6 0 1 191.2287 452.1027
  Z
  M 191.8616 449.1798
  A 5.91 4.29 89.5 0 0 196.0998 443.2326
  A 5.91 4.29 89.5 0 0 191.7584 437.3602
  A 5.91 4.29 89.5 0 0 187.5202 443.3074
  A 5.91 4.29 89.5 0 0 191.8616 449.1798
  Z"
/>
<path fill="#000000" d="
  M 213.24 445.75
  L 212.98 435.75
  A 0.83 0.74 81.4 0 1 213.49 434.97
  Q 214.59 434.59 215.75 434.77
  A 0.59 0.47 5.6 0 1 216.25 435.25
  L 216.25 451.25
  A 0.56 0.49 -85.8 0 1 215.68 451.82
  L 212.50 451.23
  A 1.32 0.48 67.5 0 1 211.79 450.45
  L 206.29 439.95
  Q 205.74 438.90 205.74 440.00
  L 205.74 451.00
  A 0.76 0.48 -90.0 0 1 205.26 451.76
  L 203.25 451.75
  A 0.76 0.54 89.5 0 1 202.71 451.00
  L 202.56 435.75
  A 0.69 0.56 84.9 0 1 203.00 435.10
  C 205.33 434.55 207.05 435.08 208.19 437.38
  Q 210.34 441.71 212.92 445.77
  Q 213.25 446.29 213.24 445.75
  Z"
/>
<path fill="#000000" d="
  M 243.8175 452.0312
  A 8.74 8.02 95.4 0 1 236.6556 442.5753
  A 8.74 8.02 95.4 0 1 245.4625 434.6288
  A 8.74 8.02 95.4 0 1 252.6244 444.0847
  A 8.74 8.02 95.4 0 1 243.8175 452.0312
  Z
  M 244.5788 449.2399
  A 5.90 4.27 90.4 0 0 248.8899 443.3698
  A 5.90 4.27 90.4 0 0 244.6612 437.4401
  A 5.90 4.27 90.4 0 0 240.3501 443.3102
  A 5.90 4.27 90.4 0 0 244.5788 449.2399
  Z"
/>
<path fill="#000000" d="
  M 332.35 451.49
  C 318.09 455.89 314.87 434.29 330.54 434.71
  Q 334.59 434.82 332.30 437.91
  A 0.71 0.66 27.3 0 1 331.52 438.13
  C 322.28 434.89 320.07 450.75 331.55 448.79
  A 1.01 0.93 -25.6 0 1 332.44 449.06
  Q 333.12 449.76 333.00 450.75
  A 0.94 0.87 -6.0 0 1 332.35 451.49
  Z"
/>
<path fill="#000000" d="
  M 340.00 448.75
  L 345.25 448.75
  A 0.94 0.56 -4.2 0 1 346.10 449.18
  Q 346.37 450.19 346.23 451.25
  A 0.73 0.53 3.6 0 1 345.50 451.71
  L 336.50 451.52
  A 0.77 0.62 -89.3 0 1 335.90 450.75
  L 335.75 435.50
  A 0.74 0.46 -88.1 0 1 336.26 434.74
  L 339.18 435.08
  A 0.95 0.28 -89.5 0 1 339.44 436.00
  L 339.35 448.32
  A 0.65 0.42 0.4 0 0 340.00 448.75
  Z"
/>
<path fill="#000000" d="
  M 351.01 451.18
  Q 348.31 450.16 348.27 447.48
  L 348.05 435.49
  A 0.52 0.46 -4.3 0 1 348.50 435.03
  Q 349.79 434.84 351.00 435.22
  A 0.92 0.65 -85.0 0 1 351.48 436.04
  C 351.51 438.91 350.73 446.09 352.50 448.23
  Q 354.42 450.54 357.20 447.85
  A 1.27 1.25 -21.6 0 0 357.57 447.01
  L 357.95 435.25
  A 0.52 0.49 -85.9 0 1 358.50 434.75
  L 360.99 435.03
  A 0.72 0.57 -84.6 0 1 361.48 435.79
  C 360.97 442.43 363.23 455.82 351.01 451.18
  Z"
/>
<path fill="#000000" d="
  M 370.20 437.46
  C 363.73 439.57 373.14 442.54 373.95 443.39
  Q 376.53 446.12 374.97 449.01
  C 373.07 452.53 368.52 452.41 365.20 451.21
  A 1.10 0.79 9.6 0 1 364.51 450.51
  Q 364.29 449.26 365.14 448.40
  A 0.83 0.56 30.2 0 1 365.95 448.35
  Q 368.20 449.33 370.49 448.78
  C 372.50 448.30 372.78 446.18 370.80 445.27
  Q 368.58 444.24 366.34 443.30
  A 1.54 1.41 -1.3 0 1 365.63 442.68
  C 362.04 436.32 369.30 433.57 374.26 435.22
  A 0.79 0.75 13.7 0 1 374.79 436.05
  Q 374.28 439.66 371.08 437.31
  A 1.01 0.18 -20.0 0 0 370.20 437.46
  Z"
/>
<rect fill="#000000" x="-1.70" y="-8.45" transform="translate(380.34,443.28) rotate(0.5)" width="3.40" height="16.90" rx="0.68"/>
<path fill="#000000" d="
  M 406.83 439.56
  Q 407.04 444.45 407.02 449.41
  C 407.02 451.42 406.34 452.50 404.19 451.65
  A 0.76 0.67 12.1 0 1 403.71 451.00
  L 403.56 435.75
  A 0.58 0.54 84.0 0 1 403.99 435.18
  Q 405.86 434.80 407.74 435.32
  A 1.48 0.59 64.6 0 1 408.45 435.98
  Q 411.82 441.22 413.96 447.04
  Q 414.03 447.22 414.16 447.24
  A 0.25 0.18 -89.7 0 0 414.36 446.97
  Q 414.15 442.44 414.28 437.90
  C 414.32 436.20 413.85 434.11 416.60 434.79
  A 0.82 0.71 -87.0 0 1 417.15 435.50
  Q 417.81 443.37 417.19 451.25
  A 0.81 0.43 -87.6 0 1 416.75 452.00
  Q 415.22 452.07 413.81 451.43
  A 1.87 1.27 7.5 0 1 413.01 450.72
  L 407.25 439.50
  Q 406.79 438.60 406.83 439.56
  Z"
/>
<path fill="#000000" d="
  M 174.67 445.01
  L 174.77 450.99
  A 0.95 0.66 83.3 0 1 174.31 451.85
  Q 172.98 452.30 171.80 451.45
  A 1.29 0.79 -79.6 0 1 171.43 450.50
  L 171.29 435.50
  A 0.50 0.46 -90.0 0 1 171.75 435.00
  L 180.50 435.00
  A 0.96 0.70 -8.2 0 1 181.33 435.44
  Q 181.79 436.47 181.17 437.44
  A 1.21 0.55 4.7 0 1 180.25 437.77
  L 175.44 437.86
  A 0.72 0.63 -0.9 0 0 174.74 438.49
  L 174.75 441.25
  A 0.70 0.64 0.9 0 0 175.43 441.89
  L 179.75 441.97
  A 0.93 0.32 -1.1 0 1 180.55 442.23
  Q 181.19 443.73 180.20 444.93
  A 1.07 0.81 20.4 0 1 179.26 445.21
  L 175.24 444.55
  A 0.49 0.47 4.7 0 0 174.67 445.01
  Z"
/>
<path fill="#000000" d="
  M 230.83 436.21
  Q 233.34 437.38 233.94 440.09
  C 236.28 450.68 229.34 451.45 221.49 451.96
  A 1.31 1.30 87.5 0 1 220.10 450.68
  L 219.77 435.75
  A 0.63 0.52 -7.8 0 1 220.27 435.21
  Q 226.05 433.98 230.83 436.21
  Z
  M 229.61 439.20
  C 228.17 438.13 226.04 437.35 224.37 437.36
  A 1.01 0.89 0.3 0 0 223.36 438.24
  L 223.28 448.75
  A 0.73 0.53 -1.6 0 0 224.05 449.28
  Q 232.87 448.86 230.27 440.04
  A 1.92 1.13 21.4 0 0 229.61 439.20
  Z"
/>
<path fill="#000000" d="
  M 271.81 436.44
  C 275.58 438.44 275.64 445.37 273.48 448.37
  C 270.81 452.08 265.36 452.19 261.11 451.64
  A 0.70 0.64 4.1 0 1 260.50 451.00
  L 260.50 435.76
  A 0.78 0.57 -7.6 0 1 261.13 435.16
  Q 267.17 433.97 271.81 436.44
  Z
  M 264.53 448.98
  C 273.71 450.19 273.68 436.26 264.58 437.56
  A 0.70 0.68 85.7 0 0 264.00 438.25
  L 264.00 448.50
  A 0.61 0.46 4.7 0 0 264.53 448.98
  Z"
/>
<path fill="#000000" d="
  M 281.77 444.69
  Q 281.00 446.38 281.39 448.25
  A 0.64 0.62 83.6 0 0 282.00 448.75
  L 287.75 448.75
  A 0.75 0.50 0.0 0 1 288.50 449.25
  L 288.50 451.00
  A 0.57 0.45 -4.2 0 1 288.00 451.46
  Q 283.13 452.10 278.25 451.46
  A 0.54 0.45 4.3 0 1 277.78 451.00
  L 277.83 435.49
  A 0.45 0.41 -89.4 0 1 278.25 435.04
  L 287.75 435.23
  A 0.52 0.51 -89.4 0 1 288.25 435.75
  L 288.25 437.25
  A 0.75 0.50 -0.0 0 1 287.50 437.75
  L 282.75 437.75
  A 1.04 0.30 0.3 0 0 281.73 438.04
  L 281.53 441.25
  A 0.68 0.53 -0.9 0 0 282.26 441.80
  L 286.75 441.48
  A 0.88 0.65 -9.1 0 1 287.60 441.92
  Q 287.91 442.92 287.68 443.93
  A 0.99 0.73 4.5 0 1 286.75 444.51
  L 282.51 444.52
  A 0.83 0.22 1.7 0 0 281.77 444.69
  Z"
/>
<rect fill="#000000" x="-1.77" y="-8.33" transform="translate(298.22,443.37) rotate(-0.4)" width="3.54" height="16.66" rx="0.62"/>
<path fill="#000000" d="
  M 306.75 438.75
  L 306.56 438.81
  A 0.20 0.03 86.4 0 0 306.54 439.00
  L 307.03 451.00
  A 0.72 0.60 -10.5 0 1 306.52 451.62
  Q 303.22 452.67 303.50 449.01
  Q 303.97 442.63 303.52 436.26
  A 0.82 0.78 73.0 0 1 303.90 435.50
  C 306.13 434.19 307.94 434.96 309.08 437.22
  Q 311.45 441.90 313.85 446.56
  Q 314.07 447.01 314.06 446.51
  C 313.97 443.46 314.08 440.44 313.87 437.41
  Q 313.66 434.52 316.74 435.09
  A 0.68 0.63 -84.9 0 1 317.25 435.75
  L 317.25 450.75
  A 1.00 0.35 88.8 0 1 316.94 451.69
  Q 315.33 451.96 313.82 451.43
  A 1.42 0.98 3.8 0 1 313.10 450.86
  L 307.03 438.98
  A 0.34 0.16 64.7 0 0 306.75 438.75
  Z"
/>
<path fill="#ffffff" d="
  M 224.37 437.36
  C 226.04 437.35 228.17 438.13 229.61 439.20
  A 1.92 1.13 21.4 0 1 230.27 440.04
  Q 232.87 448.86 224.05 449.28
  A 0.73 0.53 -1.6 0 1 223.28 448.75
  L 223.36 438.24
  A 1.01 0.89 0.3 0 1 224.37 437.36
  Z"
/>
<ellipse fill="#ffffff" cx="0.00" cy="0.00" transform="translate(191.81,443.27) rotate(89.5)" rx="5.91" ry="4.29"/>
<ellipse fill="#ffffff" cx="0.00" cy="0.00" transform="translate(244.62,443.34) rotate(90.4)" rx="5.90" ry="4.27"/>
<path fill="#ffffff" d="
  M 264.58 437.56
  C 273.68 436.26 273.71 450.19 264.53 448.98
  A 0.61 0.46 4.7 0 1 264.00 448.50
  L 264.00 438.25
  A 0.70 0.68 85.7 0 1 264.58 437.56
  Z"
/>
<ellipse fill="#ffffff" cx="0.00" cy="0.00" transform="translate(392.98,443.29) rotate(90.7)" rx="5.93" ry="4.26"/>
<path fill="#000000" d="
  M 356.75 457.37
  Q 357.96 456.11 359.88 455.95
  A 0.63 0.57 -0.7 0 1 360.57 456.56
  Q 360.32 459.40 357.22 458.70
  Q 355.79 458.37 356.75 457.37
  Z"
/>
<path fill="#000000" d="
  M 192.1623 477.5454
  A 8.82 8.00 93.3 0 1 184.6833 468.2795
  A 8.82 8.00 93.3 0 1 193.1777 459.9346
  A 8.82 8.00 93.3 0 1 200.6567 469.2005
  A 8.82 8.00 93.3 0 1 192.1623 477.5454
  Z
  M 192.6585 474.5497
  A 5.87 4.27 90.6 0 0 196.9898 468.7247
  A 5.87 4.27 90.6 0 0 192.7815 462.8103
  A 5.87 4.27 90.6 0 0 188.4502 468.6353
  A 5.87 4.27 90.6 0 0 192.6585 474.5497
  Z"
/>
<rect fill="#000000" x="-1.73" y="-8.49" transform="translate(221.44,468.66) rotate(0.8)" width="3.46" height="16.98" rx="0.56"/>
<path fill="#000000" d="
  M 290.89 465.27
  Q 290.26 463.93 290.28 465.40
  L 290.44 476.22
  A 0.90 0.65 82.7 0 1 290.00 477.03
  Q 288.92 477.41 287.75 477.23
  A 0.56 0.47 5.7 0 1 287.28 476.75
  L 287.35 461.01
  A 0.73 0.69 -7.5 0 1 287.90 460.33
  C 289.74 459.85 290.99 460.10 292.06 461.80
  Q 295.00 466.42 297.02 471.50
  Q 297.46 472.62 297.49 471.50
  L 297.71 460.75
  A 0.74 0.50 -88.6 0 1 298.23 460.03
  Q 299.51 460.07 300.54 460.66
  A 0.99 0.30 -87.4 0 1 300.75 461.50
  L 300.75 475.75
  A 0.97 0.83 76.1 0 1 300.36 476.53
  Q 297.63 478.33 296.14 475.58
  Q 293.12 470.04 290.89 465.27
  Z"
/>
<path fill="#000000" d="
  M 369.31 463.15
  L 366.01 463.52
  A 0.75 0.73 -11.7 0 1 365.21 463.01
  Q 364.84 461.79 365.02 460.50
  A 0.49 0.49 61.3 0 1 365.58 460.08
  Q 370.27 460.71 375.00 460.17
  Q 378.67 459.75 377.26 462.83
  A 0.89 0.69 9.4 0 1 376.50 463.24
  L 373.25 463.25
  A 0.54 0.49 -0.5 0 0 372.71 463.75
  L 372.96 476.25
  A 0.85 0.74 78.9 0 1 372.51 477.03
  Q 371.25 477.55 370.00 476.97
  A 0.80 0.77 13.6 0 1 369.54 476.25
  L 369.65 463.75
  A 0.58 0.31 88.5 0 0 369.31 463.15
  Z"
/>
<path fill="#000000" d="
  M 409.6868 477.4907
  A 8.80 7.98 93.8 0 1 402.3075 468.1811
  A 8.80 7.98 93.8 0 1 410.8532 459.9293
  A 8.80 7.98 93.8 0 1 418.2325 469.2389
  A 8.80 7.98 93.8 0 1 409.6868 477.4907
  Z
  M 410.2503 474.6800
  A 5.92 4.31 89.9 0 0 414.5500 468.7525
  A 5.92 4.31 89.9 0 0 410.2297 462.8400
  A 5.92 4.31 89.9 0 0 405.9300 468.7675
  A 5.92 4.31 89.9 0 0 410.2503 474.6800
  Z"
/>
<path fill="#000000" d="
  M 174.71 463.87
  Q 173.79 466.04 176.05 466.70
  C 186.85 469.84 181.66 479.28 172.20 476.87
  A 1.22 1.20 81.0 0 1 171.46 476.32
  C 168.80 472.01 175.79 475.27 178.13 473.35
  Q 179.70 472.05 176.92 470.58
  L 172.19 468.08
  Q 169.74 466.78 171.17 463.67
  C 172.93 459.85 175.94 460.02 180.22 460.32
  A 0.77 0.62 -2.4 0 1 180.90 460.82
  Q 181.88 465.21 178.11 462.82
  A 1.50 0.42 -12.1 0 0 177.02 462.75
  Q 175.07 463.00 174.71 463.87
  Z"
/>
<path fill="#000000" d="
  M 206.33 475.66
  Q 204.04 474.21 203.64 471.47
  Q 201.95 459.85 213.70 460.17
  C 215.46 460.22 217.34 460.72 215.82 462.96
  A 0.79 0.71 21.9 0 1 215.03 463.25
  C 203.75 460.85 204.78 476.84 214.73 474.13
  A 0.79 0.35 -16.3 0 1 215.55 474.24
  Q 216.02 475.37 215.59 476.58
  A 1.15 1.02 2.8 0 1 214.74 477.26
  Q 210.20 478.10 206.33 475.66
  Z"
/>
<path fill="#000000" d="
  M 230.71 473.24
  L 230.09 475.82
  A 1.23 0.25 -79.6 0 1 229.74 476.70
  Q 227.82 478.21 226.39 476.35
  A 1.15 0.15 -72.2 0 1 226.58 475.32
  L 230.96 460.99
  A 0.79 0.35 -76.3 0 1 231.43 460.38
  L 235.82 460.38
  A 0.76 0.40 76.9 0 1 236.31 460.94
  L 240.99 476.46
  A 0.64 0.34 78.6 0 1 240.75 477.27
  L 237.43 476.84
  A 1.02 0.36 80.2 0 1 236.96 476.01
  L 236.29 472.99
  A 0.79 0.67 -7.0 0 0 235.49 472.47
  L 231.25 472.73
  A 0.68 0.58 -83.5 0 0 230.71 473.24
  Z
  M 231.46 470.02
  A 0.36 0.36 -84.8 0 0 231.83 470.46
  L 235.35 470.28
  A 0.36 0.36 -10.8 0 0 235.67 469.80
  L 233.61 463.88
  A 0.36 0.36 42.7 0 0 232.92 463.92
  L 231.46 470.02
  Z"
/>
<path fill="#000000" d="
  M 248.51 474.25
  L 254.24 474.31
  A 0.87 0.76 -7.4 0 1 255.03 474.84
  C 256.02 478.03 246.71 477.17 245.09 477.15
  A 0.60 0.40 0.7 0 1 244.50 476.75
  L 244.50 461.00
  A 0.75 0.50 -90.0 0 1 245.00 460.25
  L 247.50 460.25
  A 0.75 0.50 90.0 0 1 248.00 461.00
  L 248.00 473.75
  A 0.51 0.50 0.0 0 0 248.51 474.25
  Z"
/>
<path fill="#000000" d="
  M 276.30 470.82
  L 276.55 473.74
  A 0.68 0.54 -3.3 0 0 277.25 474.23
  L 282.25 473.99
  A 1.02 0.51 -6.9 0 1 283.17 474.32
  Q 283.60 475.37 283.50 476.50
  A 0.56 0.51 -86.9 0 1 282.99 477.00
  L 274.72 477.00
  A 1.77 1.69 -89.3 0 1 273.03 475.19
  L 273.32 460.75
  A 0.50 0.42 -88.8 0 1 273.75 460.26
  L 282.50 460.56
  A 1.05 0.59 -5.5 0 1 283.33 460.93
  Q 283.78 461.85 283.25 462.75
  A 1.02 0.76 -70.2 0 1 282.50 463.25
  L 277.25 463.25
  A 0.87 0.75 8.5 0 0 276.46 463.75
  Q 276.03 464.97 276.54 466.25
  A 1.11 0.56 72.5 0 0 277.26 466.99
  L 281.75 467.00
  A 1.32 0.64 -8.3 0 1 282.69 467.30
  Q 283.44 468.20 283.10 469.33
  A 0.97 0.62 3.1 0 1 282.26 469.81
  L 276.93 470.07
  A 0.69 0.66 86.3 0 0 276.30 470.82
  Z"
/>
<path fill="#000000" d="
  M 309.75 466.99
  L 313.99 467.00
  A 1.22 0.72 69.5 0 1 314.83 467.68
  Q 315.32 468.60 314.71 469.45
  A 1.24 0.36 0.7 0 1 313.75 469.72
  L 309.00 469.97
  A 0.69 0.55 2.2 0 0 308.38 470.43
  Q 308.05 472.22 308.56 473.99
  A 0.66 0.52 -9.8 0 0 309.24 474.36
  L 314.27 473.85
  A 0.70 0.57 -10.1 0 1 315.00 474.26
  L 315.48 476.01
  A 1.21 1.02 -5.8 0 1 314.24 477.30
  L 305.81 477.15
  A 0.81 0.71 0.8 0 1 305.02 476.44
  L 305.01 461.00
  A 0.70 0.47 -89.3 0 1 305.50 460.29
  L 314.50 460.51
  A 0.71 0.66 81.5 0 1 315.13 461.01
  C 316.14 464.19 310.47 463.28 309.03 463.11
  A 0.60 0.56 10.2 0 0 308.39 463.52
  Q 307.93 465.34 309.00 466.81
  A 0.95 0.30 -3.7 0 0 309.75 466.99
  Z"
/>
<path fill="#000000" d="
  M 324.53 470.39
  C 321.28 469.61 322.65 474.06 322.39 476.55
  A 0.80 0.62 -86.0 0 1 321.75 477.26
  L 319.50 477.25
  A 0.75 0.50 90.0 0 1 319.00 476.50
  L 319.00 461.00
  A 0.66 0.65 -2.9 0 1 319.59 460.35
  C 324.68 459.86 335.65 460.99 328.78 468.62
  A 0.83 0.58 -41.8 0 0 328.59 469.43
  Q 330.40 472.78 331.22 476.51
  A 0.42 0.42 88.0 0 1 330.75 477.02
  Q 329.46 476.84 328.25 477.21
  A 0.62 0.56 75.1 0 1 327.52 476.74
  L 326.55 472.48
  Q 326.16 470.79 324.53 470.39
  Z
  M 323.00 467.75
  Q 327.16 468.66 327.27 464.54
  A 1.10 0.80 -79.4 0 0 326.82 463.60
  Q 321.04 460.71 322.69 467.48
  A 0.43 0.34 2.8 0 0 323.00 467.75
  Z"
/>
<path fill="#000000" d="
  M 347.40 476.50
  C 330.72 482.65 327.65 457.43 346.71 460.49
  A 0.96 0.50 5.5 0 1 347.49 461.00
  Q 347.63 461.93 347.34 462.83
  A 0.94 0.58 4.2 0 1 346.51 463.26
  L 341.35 463.35
  Q 338.64 463.40 337.86 466.01
  Q 335.38 474.38 343.66 474.30
  A 0.93 0.56 6.5 0 0 344.45 473.94
  Q 345.91 470.54 342.72 469.90
  A 1.28 0.30 54.7 0 1 342.00 469.26
  Q 341.51 468.64 342.01 468.02
  A 1.13 0.36 -55.0 0 1 342.76 467.45
  L 347.49 467.76
  A 0.78 0.72 2.8 0 1 348.22 468.50
  L 347.99 475.75
  A 0.92 0.77 -11.6 0 1 347.40 476.50
  Z"
/>
<path fill="#000000" d="
  M 355.50 470.25
  L 355.50 473.75
  A 0.64 0.52 -6.4 0 0 356.25 474.23
  Q 359.00 473.68 361.75 474.29
  A 1.25 0.49 8.1 0 1 362.68 474.82
  Q 362.95 475.70 362.50 476.50
  A 0.95 0.79 -73.2 0 1 361.75 477.00
  L 352.50 477.00
  A 0.59 0.46 2.1 0 1 351.90 476.50
  Q 352.55 468.87 351.95 461.25
  A 0.71 0.57 86.9 0 1 352.50 460.49
  L 361.25 460.29
  A 0.99 0.70 -6.2 0 1 362.18 460.81
  Q 362.49 461.95 361.98 462.94
  A 1.12 0.57 8.5 0 1 361.00 463.27
  L 356.26 462.95
  A 0.71 0.56 2.3 0 0 355.50 463.50
  L 355.50 466.50
  A 0.79 0.50 2.2 0 0 356.25 467.02
  L 361.24 467.29
  A 0.87 0.77 -5.3 0 1 362.02 467.86
  C 362.75 470.65 358.09 470.03 356.06 469.86
  A 0.52 0.40 3.2 0 0 355.50 470.25
  Z"
/>
<rect fill="#000000" x="-1.74" y="-8.39" transform="translate(382.40,468.72) rotate(-1.0)" width="3.48" height="16.78" rx="0.54"/>
<path fill="#000000" d="
  M 389.81 475.03
  Q 389.13 474.51 388.76 473.74
  C 384.63 465.16 391.21 458.72 399.94 460.42
  A 0.85 0.52 6.0 0 1 400.61 460.93
  Q 400.76 462.11 400.03 463.02
  A 1.10 0.75 22.5 0 1 399.03 463.23
  C 389.20 460.67 387.74 475.79 398.79 474.30
  A 1.20 0.96 -24.3 0 1 399.69 474.53
  C 401.28 475.90 399.85 476.87 398.46 477.15
  Q 393.85 478.06 389.81 475.03
  Z"
/>
<ellipse fill="#ffffff" cx="0.00" cy="0.00" transform="translate(192.72,468.68) rotate(90.6)" rx="5.87" ry="4.27"/>
<path fill="#ffffff" d="
  M 323.00 467.75
  A 0.43 0.34 2.8 0 1 322.69 467.48
  Q 321.04 460.71 326.82 463.60
  A 1.10 0.80 -79.4 0 1 327.27 464.54
  Q 327.16 468.66 323.00 467.75
  Z"
/>
<ellipse fill="#ffffff" cx="0.00" cy="0.00" transform="translate(410.24,468.76) rotate(89.9)" rx="5.92" ry="4.31"/>
<path fill="#ffffff" d="
  M 231.46 470.02
  L 232.92 463.92
  A 0.36 0.36 42.6 0 1 233.61 463.88
  L 235.67 469.80
  A 0.36 0.36 -10.4 0 1 235.35 470.28
  L 231.83 470.46
  A 0.36 0.36 -85.1 0 1 231.46 470.02
  Z"
/>
</svg>
